<svg height="300px" width="300px" fill="#000000" xmlns="http://www.w3.org/2000/svg" xmlns:xlink="http://www.w3.org/1999/xlink" version="1.1" x="0px" y="0px" viewBox="0 0 100 100" enable-background="new 0 0 100 100" xml:space="preserve"><path d="M81.917,73.672c-11.625-15.481-23.27-30.806-34.915-46.13c0,0-6.52-8.74-14.626-1.586c0,0-8.087,5.73-1.147,14.285  c8.229,10.935,16.477,21.714,24.617,32.718c0,0,1.445,2.4,3.288,0.965c0,0,1.766-0.81-0.157-3.825  c-8.16-10.847-16.321-21.695-24.569-32.474c-4.1-5.268,0.407-8.352,0.407-8.352c5.268-4.1,8.792,1.334,8.792,1.334l34.115,44.921  c5.064,8.431-3.216,13.303-3.216,13.303c-7.962,5.844-12.577-1.716-12.577-1.716C47.912,68.56,33.875,50.163,19.858,31.609  c-7.019-11.736,3.643-19.047,3.643-19.047C33.705,4.48,42.383,15.63,42.383,15.63l33.022,43.516  c0.976,1.073,2.186,1.541,3.327,0.653c0.985-0.908,0.829-2.196,0.165-3.23L45.621,12.546C34.103-1.891,20.769,9.051,20.769,9.051  S5.883,20.354,17.362,35.103c12.67,16.642,28.048,36.742,40.63,53.452c0,0,6.785,11.548,19.082,3.915  C89.091,83.118,81.917,73.672,81.917,73.672z"/></svg>